<svg xmlns="http://www.w3.org/2000/svg" xmlns:xlink="http://www.w3.org/1999/xlink" id="Layer_1" x="0" y="0" version="1.1" viewBox="0 0 512 512" xml:space="preserve" style="enable-background:new 0 0 512 512"><style type="text/css">.st0{fill:#5de9d4}</style><path d="M502,492h-25.5v-71.5h-23v-7h-17v-17h-22v-7h-22v-18h-18v-21h-25v-9h-10v-5h-17v-6h-22v-19h-15v-8h-17v-5h-24	v-10h-17v-7h-13V275h-20v-12.5h-19v-24h-14v-17h-19v-19h-16v-29h-36v-21H60.8c0.2-2.3,0.2-7-0.3-16.6l-0.1-1.4H20V10	c0-5.5-4.5-10-10-10S0,4.5,0,10v492c0,5.5,4.5,10,10,10h492c5.5,0,10-4.5,10-10S507.5,492,502,492z" class="st0"/></svg>